<svg width="1920" height="3670" viewBox="0 0 1920 3670" fill="none" xmlns="http://www.w3.org/2000/svg">
<path d="M2668.93 2234.71C2363.21 2416.25 2379.33 1965.49 2038.07 1989.55C1711.84 2012.56 1476.34 1681.11 1621.47 1502.95C1766.61 1324.78 2070.5 1262.58 1485.6 1897.82C900.701 2533.06 1433.94 2981.82 1954.02 2612.8C2474.1 2243.78 2602.54 2818.04 2327.7 3000.21C2052.85 3182.37 867.539 2226.64 1182.12 1453.2C1496.7 679.756 2322.6 999.466 2502.54 1419.24C2682.47 1839.01 2887.11 1608.65 2959.82 1730.88C3025.42 1841.16 2970.96 2055.36 2668.93 2234.71Z" stroke="white" stroke-width="3"/>
<path d="M2657.2 2256.19C2351.48 2437.73 2367.6 1986.97 2026.34 2011.03C1700.11 2034.04 1464.6 1702.59 1609.74 1524.43C1754.88 1346.26 2058.77 1284.06 1473.87 1919.3C888.97 2554.54 1422.21 3003.31 1942.29 2634.28C2462.37 2265.26 2590.81 2839.52 2315.97 3021.69C2041.12 3203.86 855.808 2248.13 1170.39 1474.68C1484.97 701.237 2310.87 1020.95 2490.81 1440.72C2670.74 1860.49 2875.38 1630.13 2948.09 1752.36C3013.69 1862.64 2959.23 2076.84 2657.2 2256.19Z" stroke="white" stroke-width="3"/>
<path d="M448.039 121.417C758.122 295.411 359.688 506.832 551.16 790.34C734.199 1061.36 564.909 1431.04 338.044 1394.42C111.178 1357.81 -94.6333 1125.74 747.948 1314.66C1590.53 1503.58 1712.56 817.396 1132.93 551.506C553.308 285.616 986.415 -112.753 1281.6 34.1864C1576.78 181.126 1341.75 1685.5 514.638 1799.79C-312.476 1914.08 -448.548 1038.97 -174.981 673.256C98.585 307.54 -203.232 245.499 -133.733 121.417C-71.0282 9.46362 141.703 -50.4753 448.039 121.417Z" stroke="white" stroke-width="3"/>
<path d="M472.507 120.836C782.59 294.83 384.156 506.251 575.628 789.759C758.667 1060.78 589.377 1430.45 362.512 1393.84C135.647 1357.23 -70.165 1125.15 772.416 1314.08C1615 1503 1737.02 816.814 1157.4 550.924C577.776 285.034 1010.88 -113.334 1306.07 33.6052C1601.25 180.544 1366.22 1684.92 539.106 1799.21C-288.007 1913.49 -424.08 1038.39 -150.513 672.674C123.053 306.959 -178.764 244.918 -109.265 120.835C-46.56 8.88242 166.171 -51.0565 472.507 120.836Z" stroke="white" stroke-width="3"/>
<path d="M-496.495 2288.03C-154.201 2191.8 -286.439 2623.04 49.4228 2688.12C370.492 2750.33 512.185 3131.43 325.879 3265.96C139.572 3400.49 -170.062 3381.92 559.321 2919.71C1288.7 2457.51 889.785 1886.02 291.916 2107.86C-305.952 2329.7 -281.389 1741.76 31.2389 1636.94C343.866 1532.11 1241.43 2762.06 737.386 3427.73C233.341 4093.4 -481.669 3570.82 -546.828 3118.78C-611.987 2666.74 -869.273 2836.29 -907.87 2699.41C-942.694 2575.91 -834.653 2383.1 -496.495 2288.03Z" stroke="white" stroke-width="3"/>
<path d="M-479.604 2270.32C-137.31 2174.09 -269.548 2605.32 66.3134 2670.4C387.383 2732.62 529.076 3113.72 342.769 3248.25C156.463 3382.78 -153.171 3364.21 576.212 2902C1305.59 2439.79 906.676 1868.3 308.807 2090.15C-289.062 2311.99 -264.498 1724.05 48.1295 1619.22C360.757 1514.4 1258.32 2744.35 754.277 3410.02C250.232 4075.69 -464.778 3553.11 -529.937 3101.07C-595.096 2649.03 -852.383 2818.58 -890.979 2681.7C-925.803 2558.19 -817.763 2365.39 -479.604 2270.32Z" stroke="white" stroke-width="3"/>
</svg>
