<svg width="183" height="54" viewBox="0 0 183 54" fill="none" xmlns="http://www.w3.org/2000/svg">
<path d="M82.304 43H58.4V9.4H82.304L86.96 15.544V36.808L82.304 43ZM83.744 16.648L80.672 12.616H61.616V39.784H80.672L83.744 35.704V16.648ZM110.459 42.952V41.176L108.107 43H95.4834L90.7794 39.112V23.944L95.4834 20.104H108.155L110.459 22.36V20.104H113.579V42.952H110.459ZM110.459 26.68L107.243 23.224H96.5874L93.9954 25.432V37.672L96.6354 39.784H107.435L110.459 37.336V26.68ZM148.4 43V27.256L145.376 23.224H139.04L136.256 36.616H133.28L130.544 23.224H124.16L121.136 27.256V43H117.92V26.248L122.624 20.056H132.896L134.768 29.608L136.688 20.056H147.008L151.616 26.248V43H148.4ZM155.995 16.792V13.336H158.875V16.792H155.995ZM155.947 43V20.056H158.875V43H155.947ZM178.513 24.76L176.401 23.224H169.825L166.849 25.48V43H163.681V20.056H166.849V22.216L169.537 20.056H177.505L180.385 22.264L178.513 24.76Z" fill="white"/>
<path d="M35.9412 15.4563H23M35.9412 15.4563V26.0583M35.9412 15.4563L23 2M10.0588 15.4563H23M10.0588 15.4563V26.0583M10.0588 15.4563L23 2M10.0588 36.6602L3 44H10.0588M10.0588 36.6602V44M10.0588 36.6602V26.0583M10.0588 36.6602L23 31.3592M10.0588 36.6602H23M35.9412 36.6602V44M35.9412 36.6602L43 44H35.9412M35.9412 36.6602V26.0583M35.9412 36.6602L23 31.3592M35.9412 36.6602H23M35.9412 44H23M10.0588 44H23M23 15.4563L10.0588 26.0583M23 15.4563L35.9412 26.0583M23 15.4563V2M23 15.4563V31.3592M10.0588 26.0583L23 31.3592M35.9412 26.0583L23 31.3592M23 31.3592V36.6602M23 36.6602V44" stroke="url(#paint0_linear_20_2)" stroke-width="2"/>
<defs>
<linearGradient id="paint0_linear_20_2" x1="23" y1="2" x2="23" y2="44" gradientUnits="userSpaceOnUse">
<stop stop-color="white"/>
<stop offset="1" stop-color="#FF0000"/>
</linearGradient>
</defs>
</svg>
