<svg width="298" height="144" viewBox="0 0 298 144" fill="none" xmlns="http://www.w3.org/2000/svg">
<path d="M82.4062 99L95.1562 65.1562L83.5312 33.375H96.375L101.719 47.625L107.062 33.375H119.906L108.281 65.1562L121.031 99H107.438L101.719 83.3438L96 99H82.4062ZM126.375 99V33.375H160.5V46.5H139.594V59.8125H151.688V73.0312H139.594V85.7812H160.5V99H126.375ZM168 99V52.875H168.75L181.219 72.9375V99H168ZM168 42V33.375H178.781L209.719 83.25V99H203.438L168 42ZM196.5 52.3125V33.375H209.719V72.375H208.969L196.5 52.3125ZM217.594 99V33.375H251.719V46.5H230.812V59.8125H242.906V73.0312H230.812V85.7812H251.719V99H217.594ZM256.406 33.375H270.188L282.375 75.2812V99H268.688V75.375L256.406 33.375ZM279.188 46.0312L282.844 33.375H296.438L286.219 67.9688H285.375L279.188 46.0312Z" fill="white"/>
<path d="M54.8824 55.5049H34.5M54.8824 55.5049V71.6602M54.8824 55.5049L34.5 35M14.1176 55.5049H34.5M14.1176 55.5049V71.6602M14.1176 55.5049L34.5 35M14.1176 87.8155L3 99H14.1176M14.1176 87.8155V99M14.1176 87.8155V71.6602M14.1176 87.8155L34.5 79.7379M14.1176 87.8155H34.5M54.8824 87.8155V99M54.8824 87.8155L66 99H54.8824M54.8824 87.8155V71.6602M54.8824 87.8155L34.5 79.7379M54.8824 87.8155H34.5M54.8824 99H34.5M14.1176 99H34.5M34.5 55.5049L14.1176 71.6602M34.5 55.5049L54.8824 71.6602M34.5 55.5049V35M34.5 55.5049V79.7379M14.1176 71.6602L34.5 79.7379M54.8824 71.6602L34.5 79.7379M34.5 79.7379V87.8155M34.5 87.8155V99" stroke="url(#paint0_linear_7_7)" stroke-width="2"/>
<defs>
<linearGradient id="paint0_linear_7_7" x1="34.5" y1="35" x2="34.5" y2="99" gradientUnits="userSpaceOnUse">
<stop stop-color="white"/>
<stop offset="1" stop-color="#FF0000"/>
</linearGradient>
</defs>
</svg>
